<?xml version="1.0" standalone="no"?>
<!DOCTYPE svg PUBLIC "-//W3C//DTD SVG 20010904//EN"
 "http://www.w3.org/TR/2001/REC-SVG-20010904/DTD/svg10.dtd">
<svg version="1.0" xmlns="http://www.w3.org/2000/svg"
 width="96.000000pt" height="96.000000pt" viewBox="0 0 96.000000 96.000000"
 preserveAspectRatio="xMidYMid meet">
<metadata>
Created by potrace 1.11, written by Peter Selinger 2001-2013
</metadata>
<g transform="translate(0.000000,96.000000) scale(0.100000,-0.100000)"
fill="#000000" stroke="none">
<path d="M425 818 c4 -31 3 -32 -11 -14 -8 11 -14 23 -14 28 0 4 -12 8 -26 8
-22 0 -25 -2 -14 -15 7 -8 10 -15 7 -15 -3 0 -2 -13 3 -29 6 -21 4 -33 -5 -41
-10 -9 -15 -2 -21 32 -4 24 -7 46 -6 51 1 4 -7 7 -18 7 -18 0 -18 -2 -5 -47 9
-29 11 -51 5 -57 -13 -13 -40 12 -33 30 3 8 -1 14 -10 14 -9 0 -20 7 -25 15
-12 23 -44 8 -37 -16 4 -11 2 -19 -5 -19 -8 0 -9 -7 -5 -17 13 -32 10 -58 -6
-61 -10 -2 -20 10 -29 38 -14 42 -17 45 -37 32 -8 -5 -9 -19 -4 -44 l9 -37
-23 17 c-13 9 -20 21 -17 26 3 5 -1 6 -9 1 -36 -21 -37 -25 -7 -57 18 -20 28
-39 24 -50 -4 -17 -2 -17 12 -6 9 7 19 14 21 15 2 1 -7 12 -20 23 l-24 21 32
-16 33 -15 -6 32 c-5 29 -4 31 7 13 6 -11 13 -21 14 -23 1 -2 19 7 39 19 26
15 34 25 27 32 -6 6 -11 14 -11 17 0 9 32 6 47 -3 7 -5 33 -1 58 8 25 8 53 15
61 15 13 0 13 2 0 22 -18 25 -20 38 -8 38 5 0 15 -11 22 -24 24 -46 36 -38 36
25 0 41 -4 59 -13 59 -8 0 -11 -11 -8 -32z m-175 -79 c0 -6 -4 -7 -10 -4 -5 3
-10 11 -10 16 0 6 5 7 10 4 6 -3 10 -11 10 -16z"/>
<path d="M505 841 c3 -5 -2 -17 -11 -26 -9 -9 -14 -19 -10 -22 3 -4 0 -16 -8
-29 -14 -20 -13 -22 9 -26 21 -4 23 -3 14 13 -8 16 -6 18 13 15 15 -2 22 -9
20 -20 -2 -10 4 -16 18 -16 22 0 25 7 10 30 -5 9 -5 17 1 21 15 9 -23 69 -44
69 -10 0 -16 -4 -12 -9z m25 -41 c0 -5 -4 -10 -10 -10 -5 0 -10 5 -10 10 0 6
5 10 10 10 6 0 10 -4 10 -10z"/>
<path d="M601 819 c6 -12 9 -38 7 -60 -3 -30 0 -39 14 -42 10 -3 18 0 18 7 0
7 18 32 40 56 22 24 40 45 40 47 0 10 -40 1 -40 -9 -1 -7 -11 -25 -23 -41
l-23 -27 -2 37 c-3 43 -8 53 -28 53 -12 0 -13 -4 -3 -21z"/>
<path d="M746 775 c-3 -8 -12 -15 -21 -15 -8 0 -15 -6 -15 -14 0 -8 -10 -22
-22 -30 -21 -15 -21 -16 -2 -22 10 -4 23 -9 28 -12 5 -3 6 0 2 6 -4 7 -4 17
-1 22 9 15 36 -15 30 -32 -4 -9 4 -19 18 -25 14 -6 41 -26 61 -43 l36 -32 0
26 c0 18 -4 24 -14 20 -27 -10 -28 17 -2 50 22 30 24 36 10 46 -8 7 -16 11
-17 9 -1 -2 -10 -21 -20 -42 -10 -21 -23 -37 -30 -34 -17 5 -15 40 3 54 12 10
12 12 1 13 -9 0 -12 8 -8 25 5 30 -27 56 -37 30z m1 -47 c-3 -8 -6 -5 -6 6 -1
11 2 17 5 13 3 -3 4 -12 1 -19z"/>
<path d="M293 603 c-5 -15 -8 -38 -7 -50 1 -16 -4 -23 -17 -23 -14 0 -19 7
-19 28 0 18 -3 23 -9 14 -4 -8 -6 -30 -5 -50 3 -30 2 -33 -7 -19 -5 9 -7 22
-4 27 3 6 2 10 -4 10 -5 0 -9 -20 -8 -44 1 -31 -4 -50 -17 -65 -11 -12 -16
-21 -12 -21 12 0 45 43 46 60 1 9 3 10 6 3 3 -6 -7 -35 -21 -65 -22 -44 -23
-49 -5 -29 l20 23 0 -36 c0 -23 -5 -36 -13 -36 -7 0 -17 -14 -22 -32 -6 -17
-16 -34 -23 -36 -11 -3 -12 0 -3 16 6 10 7 23 3 27 -4 5 -1 5 6 1 14 -8 17 10
3 19 -6 3 -16 -7 -23 -22 -7 -15 -22 -29 -33 -31 -30 -6 -38 -18 -26 -39 11
-16 11 -16 6 5 -4 13 -2 22 4 22 6 0 11 -11 11 -25 0 -20 -5 -25 -23 -25 -25
0 -49 -22 -60 -52 -4 -10 -14 -18 -22 -18 -10 0 -15 -7 -13 -17 3 -15 16 -19
66 -21 38 -2 61 1 58 6 -3 6 -22 9 -41 7 -20 -1 -38 1 -40 5 -9 15 61 20 135
11 147 -18 400 -2 462 30 45 23 91 25 108 4 11 -13 22 -7 79 48 36 35 81 72
99 81 35 18 41 33 17 42 -8 4 -12 10 -9 15 3 6 -5 7 -20 3 -17 -4 -26 -2 -26
6 0 10 -3 10 -15 0 -9 -7 -15 -8 -15 -2 0 5 -7 13 -16 16 -8 3 -12 2 -9 -4 9
-14 -19 -12 -34 3 -9 8 -12 8 -7 0 10 -18 -18 -22 -32 -4 -10 14 -11 14 -7 1
4 -12 -3 -16 -31 -18 -27 -2 -34 0 -28 10 4 7 -2 4 -14 -6 -17 -14 -22 -16
-22 -5 0 12 -2 11 -10 -1 -5 -8 -12 -11 -16 -7 -4 4 -13 2 -21 -5 -11 -9 -17
-7 -28 9 -8 12 -26 24 -40 27 -14 4 -25 13 -25 22 0 8 -9 18 -19 22 -11 4 -20
10 -20 15 -1 4 -4 6 -8 5 -5 -2 -7 -7 -5 -11 1 -5 -7 -11 -18 -14 -11 -3 -18
-9 -15 -12 2 -4 -11 -8 -30 -8 -23 0 -35 5 -35 14 0 16 12 17 27 2 8 -8 13 -8
18 0 3 6 3 11 -2 10 -4 -1 -18 2 -31 6 -18 6 -20 10 -11 21 7 8 9 17 5 21 -3
3 -6 1 -6 -4 0 -12 -25 -12 -36 0 -4 4 -12 7 -17 7 -5 0 2 -9 16 -20 15 -12
25 -29 24 -41 -2 -28 -43 -44 -66 -27 -14 11 -14 11 -4 -3 11 -13 9 -18 -11
-27 -29 -13 -36 -8 -30 25 3 15 -1 30 -8 34 -7 5 -8 9 -2 9 5 0 11 21 13 47 1
26 4 49 7 52 2 2 15 -2 29 -9 30 -16 35 -12 40 31 3 19 7 48 10 64 5 23 4 26
-4 15 -9 -12 -13 -13 -20 -2 -6 10 -11 7 -18 -15z"/>
<path d="M270 489 c0 -5 5 -7 10 -4 6 3 10 8 10 11 0 2 -4 4 -10 4 -5 0 -10
-5 -10 -11z"/>
<path d="M268 458 c14 -14 16 -32 4 -24 -5 3 -9 -1 -9 -9 0 -11 4 -12 14 -4
16 14 47 3 37 -12 -4 -8 -3 -9 4 -5 7 4 12 1 12 -6 0 -9 3 -9 10 2 7 11 4 20
-13 32 -12 10 -28 18 -34 18 -7 0 -13 5 -13 10 0 6 -5 10 -12 10 -9 0 -9 -3 0
-12z"/>
<path d="M170 375 c0 -8 -5 -15 -11 -15 -6 0 -9 -5 -7 -12 5 -14 48 -22 48 -8
0 6 -7 10 -15 10 -13 0 -14 4 -5 20 7 14 7 20 0 20 -5 0 -10 -7 -10 -15z"/>
<path d="M805 171 c-3 -5 -1 -12 5 -16 6 -4 8 -11 5 -16 -9 -13 -42 -11 -65 4
-15 8 -23 9 -28 1 -4 -6 -23 -12 -42 -13 -19 -1 -53 -4 -75 -5 -22 -2 -48 -4
-58 -5 -10 0 -15 -6 -12 -11 7 -11 354 -14 380 -3 10 3 8 10 -8 26 -39 40 -89
58 -102 38z"/>
<path d="M175 110 c3 -5 8 -10 11 -10 2 0 4 5 4 10 0 6 -5 10 -11 10 -5 0 -7
-4 -4 -10z"/>
<path d="M418 103 c6 -2 18 -2 25 0 6 3 1 5 -13 5 -14 0 -19 -2 -12 -5z"/>
<path d="M478 103 c7 -3 16 -2 19 1 4 3 -2 6 -13 5 -11 0 -14 -3 -6 -6z"/>
</g>
</svg>
